<?xml version="1.0" encoding="UTF-8"?>
<svg id="Layer_2" data-name="Layer 2" xmlns="http://www.w3.org/2000/svg" viewBox="0 0 674.77 306.11">
  <defs>
    <style>
      .cls-1 {
        letter-spacing: -.04em;
      }

      .cls-2, .cls-3, .cls-4 {
        fill: #fff;
      }

      .cls-5, .cls-3 {
        stroke-width: 0px;
      }

      .cls-5, .cls-6, .cls-7 {
        fill: #ff7900;
      }

      .cls-8 {
        font-family: HelveticaNeueLTStd-Roman, 'Helvetica Neue LT Std';
        font-size: 14px;
        letter-spacing: .01em;
      }

      .cls-9 {
        font-family: HelveticaNeueLTStd-Md, 'Helvetica Neue LT Std';
        font-size: 15px;
        font-weight: 500;
        letter-spacing: 0em;
      }

      .cls-6 {
        font-family: DINRound-Bold, DINRound-Bold;
        font-size: 38.23px;
      }

      .cls-6, .cls-7 {
        font-weight: 700;
      }

      .cls-10 {
        letter-spacing: -.03em;
      }

      .cls-7 {
        font-family: HelveticaRoundedLT-Bold, 'HelveticaRounded LT Bold';
        font-size: 16.26px;
      }

      .cls-4 {
        font-family: Navigo, Navigo;
        font-size: 124.96px;
      }
    </style>
  </defs>
  <g id="Layer_1-2" data-name="Layer 1">
    <g>
      <rect class="cls-5" x="119.78" y="11.16" width="77.87" height="20"/>
      <path class="cls-5" d="m154.27,244.75c-7.31,0-14.22-.95-20.66-2.83-1.91-.56-3.92-1.01-6.05-1.49-5.89-1.33-12.53-2.82-18.58-7.07-.16-.06-.33-.12-.52-.19H44.02c-24.27,0-44.02-19.75-44.02-44.02V55.18C0,30.91,19.75,11.16,44.02,11.16h81.19v20H44.02c-13.24,0-24.02,10.77-24.02,24.01v133.97c0,13.24,10.77,24.01,24.02,24.01h70.53l1.95,1.64c.93.34,2.27.92,3.69,1.98,2.84,2.12,6.98,3.05,11.76,4.13,2.34.53,4.76,1.07,7.27,1.81,6.51,1.91,13.89,2.47,21.93,1.68,8.04-.79,15.17-2.79,21.18-5.93,3.24-1.69,6.07-2.24,7.94-2.6.53-.1,1.26-.24,1.47-.33l2.79-2.35,3.66-.03h346.47c13.24,0,24.01-10.77,24.01-24.01V55.18c0-13.24-10.77-24.01-24.01-24.01H190.42V11.16h354.24c24.27,0,44.02,19.75,44.02,44.02v133.97c0,24.27-19.75,44.02-44.02,44.02H201.19c-2.77,1.49-5.28,1.98-7.12,2.33-1.27.25-1.86.37-2.48.69-8.29,4.33-17.87,7.06-28.47,8.11-3.01.3-5.96.45-8.85.45Z"/>
      <path class="cls-5" d="m125.21,21.17H47.52s-.01,0-.02,0h-3.48c-18.71,0-34.02,15.31-34.02,34.02v133.97c0,18.71,15.31,34.02,34.02,34.02h66.89c1.08.91,2.18.8,3.32,1.64,6.35,4.73,14.42,5.24,22.2,7.51,7.79,2.28,16.36,2.95,25.72,2.03,9.36-.92,17.64-3.26,24.83-7.02,4.43-2.31,7.51-1.04,11.22-4.16h346.47c18.71,0,34.02-15.31,34.02-34.02V55.18c0-18.71-15.31-34.02-34.02-34.02H254.34s-.01,0-.02,0h-63.9"/>
    </g>
    <g>
      <g>
        <path class="cls-3" d="m46.98,214.92c-16.55,0-30.02-13.46-30.02-30.02V55.18c0-16.55,13.47-30.02,30.02-30.02h206.81c10.3,0,18.68,8.38,18.68,18.68v152.4c0,10.3-8.38,18.68-18.68,18.68H46.98Z"/>
        <path class="cls-3" d="m544.12,21.17H253.8s-.01,0-.02,0H46.98s-.01,0-.02,0h-3.48c-18.71,0-34.02,15.31-34.02,34.02v133.97c0,18.71,15.31,34.02,34.02,34.02h500.64c18.71,0,34.02-15.31,34.02-34.02V55.18c0-18.71-15.31-34.02-34.02-34.02Zm-275.66,22.68v152.4c0,8.09-6.58,14.68-14.68,14.68H46.98c-14.35,0-26.02-11.67-26.02-26.02V55.18c0-11.16,7.06-20.7,16.95-24.38,1.79-.41,3.65-.63,5.56-.63h215.59c5.49,2.13,9.39,7.45,9.39,13.68Zm300.67,145.31c0,13.79-11.22,25.02-25.02,25.02h-276.5c5.37-4.16,8.84-10.65,8.84-17.93V43.84c0-5.13-1.73-9.87-4.62-13.68h272.28c13.79,0,25.02,11.22,25.02,25.02v133.97Z"/>
      </g>
      <path class="cls-5" d="m243.16,130.01c.04.42-.03.74-.22.97,2.64,3.31,4.17,7.15,4.6,11.52.76,7.7-.9,14.32-4.97,19.87-4.07,5.55-10.05,8.82-17.93,9.8-1.65,8.78-4.16,16.95-7.5,24.53-3.35,7.58-7.68,14.3-12.97,20.18-5.3,5.88-11.55,10.7-18.74,14.45-7.19,3.76-15.47,6.09-24.83,7.02-9.36.92-17.93.25-25.72-2.03-7.79-2.27-14.86-5.78-21.2-10.51-6.35-4.73-11.9-10.48-16.67-17.26-4.76-6.78-8.82-14.3-12.15-22.59-7.91.78-14.45-1.2-19.65-5.94-5.19-4.74-8.17-10.95-8.93-18.65-.55-5.62.84-10.68,4.17-15.22l-3.75-18.85-17.56.79c-1.91-.23-2.95-1.18-3.12-2.84-.06-.62.75-2.01,2.42-4.18,1.68-2.16,3.6-4.45,5.78-6.87,2.17-2.42,4.26-4.67,6.26-6.76s3.38-3.48,4.15-4.19l-23.64-6.49c-1.29-.29-2.01-1.17-2.15-2.62-.12-1.25.31-2.13,1.31-2.65l21.67-13.48c-.46-.37-1.33-1.18-2.6-2.42-1.28-1.24-2.61-2.52-4-3.86-1.39-1.33-2.62-2.58-3.68-3.73-1.06-1.16-1.62-2.04-1.68-2.67-.14-1.45.49-2.46,1.91-3.02l38.73-12.96c-.48-.58-1.39-1.86-2.74-3.82-1.35-1.96-2.71-3.99-4.06-6.06-1.36-2.07-2.6-4-3.72-5.78s-1.7-2.87-1.74-3.29c-.18-1.87.66-2.9,2.53-3.08l.62-.06,50.14,3.44,2.6-27.47c.85-1.97,2.11-3.04,3.78-3.21,1.04-.1,1.91.24,2.62,1l28.19,20.15,23.63-17.94c.75-.91,1.54-1.41,2.37-1.5,2.08-.21,3.22.74,3.43,2.81l6.68,24.85,40.31-6.02.31-.03c1.87-.18,2.9.66,3.08,2.53.04.42-.39,1.88-1.3,4.38-.91,2.51-1.9,5.23-2.97,8.17-1.08,2.94-2.17,5.73-3.27,8.36-1.11,2.63-1.83,4.38-2.16,5.25l30.99,13.95c.89.54,1.4,1.44,1.53,2.68.14,1.46-.49,2.47-1.91,3.02l-19.13,7.24c.73.98,2.14,3.1,4.25,6.35,2.1,3.26,4.28,6.67,6.52,10.22,2.24,3.56,4.24,6.83,6.01,9.8,1.76,2.98,2.67,4.67,2.71,5.09.21,2.08-.74,3.22-2.81,3.43-.42.04-1.39-.23-2.92-.81-1.53-.58-3.17-1.21-4.91-1.88-1.75-.66-3.39-1.34-4.93-2.03-1.54-.68-2.64-1.21-3.3-1.56l2.22,22.46Zm-162.5,45.34c-1.47-4.26-2.74-8.6-3.8-13.01-1.07-4.41-2.03-8.88-2.9-13.42-5.04,2.18-7.29,5.97-6.75,11.38.39,3.95,1.68,7.4,3.86,10.33,2.18,2.93,5.38,4.51,9.6,4.72Zm133.25-57.58l-.68-6.86c-.5,1.31-1.22,3.06-2.16,5.25-.94,2.19-2.24,3.37-3.9,3.54-1.46.14-2.47-.49-3.02-1.91l-10.82-26.66c-1.19.75-3.32,2.06-6.38,3.94-3.07,1.88-6.64,4.07-10.69,6.57-4.06,2.5-8.32,5.07-12.79,7.72-4.46,2.65-8.58,5.1-12.35,7.36-3.77,2.26-6.99,4.16-9.68,5.68-2.68,1.52-4.13,2.3-4.34,2.32-2.08.21-3.22-.73-3.43-2.81-.06-.62.23-1.39.88-2.29.64-.9,1.39-1.87,2.23-2.9s1.63-2.05,2.37-3.07c.74-1.02,1.29-1.75,1.67-2.21l-29.22,16.75,29.46,14.42c1.1.52,1.7,1.3,1.81,2.34.21,2.08-.73,3.22-2.81,3.43-.62.06-2.58-.64-5.88-2.1-3.29-1.46-6.93-3.15-10.9-5.07-3.97-1.92-7.73-3.81-11.27-5.66-3.55-1.86-5.87-3.04-6.97-3.57-.79.5-1.83,1.13-3.12,1.88-1.29.76-2.25,1.17-2.87,1.23-2.08.21-3.21-.63-3.4-2.5-.04-.41.17-1.43.64-3.06.47-1.62,1.08-3.41,1.83-5.38.75-1.96,1.4-3.86,1.96-5.71.55-1.84,1-3.09,1.36-3.76l-16.84,17.73c1.23,10.38,3.41,21.3,6.54,32.75,3.12,11.46,7.57,21.89,13.33,31.29,5.76,9.41,13.12,16.98,22.09,22.71,8.96,5.73,19.9,7.96,32.79,6.69,12.89-1.27,23.18-5.54,30.87-12.82,7.68-7.26,13.49-16.03,17.41-26.29,3.92-10.26,6.25-21.25,6.98-32.98.73-11.73.58-22.79-.44-33.19l-.28-2.81Zm-84.5,43.94c.25,2.5-.48,4.72-2.18,6.67-1.7,1.96-3.79,3.05-6.29,3.3s-4.77-.42-6.81-2.01c-2.05-1.58-3.19-3.62-3.44-6.12s.48-4.72,2.18-6.67c1.7-1.95,3.79-3.05,6.29-3.3s4.77.43,6.81,2.01c2.05,1.58,3.19,3.62,3.44,6.12Zm54.41,40.58c.19,1.9-.76,2.95-2.84,3.16-1.25.12-2.38-.62-3.37-2.24-1-1.61-2.37-3.3-4.12-5.06-1.75-1.76-4.01-3.36-6.77-4.8-2.77-1.44-6.55-1.92-11.33-1.45-4.79.47-8.4,1.64-10.84,3.48-2.45,1.85-4.24,3.85-5.39,6-1.16,2.15-2.02,4.06-2.59,5.72-.57,1.67-1.48,2.56-2.73,2.68-2.08.21-3.22-.74-3.43-2.86-.29-2.95.33-5.68,1.87-8.17,1.54-2.49,3.58-4.67,6.13-6.52,2.54-1.85,5.29-3.34,8.22-4.48,2.93-1.14,5.65-1.84,8.14-2.08,5.41-.53,11.08.51,17,3.12,5.93,2.61,9.91,6.79,11.95,12.56l.09.95Zm13.96-81.99c-.77.71-2.91,2.44-6.42,5.2-3.51,2.76-7.32,5.66-11.43,8.69-4.11,3.03-7.83,5.76-11.16,8.19-3.33,2.43-5.31,3.67-5.93,3.74-2.08.21-3.22-.73-3.43-2.81-.1-1.04.33-1.92,1.31-2.65.77-.71,2.91-2.44,6.42-5.2,3.51-2.76,7.32-5.65,11.43-8.69,4.11-3.03,7.83-5.76,11.16-8.19,3.33-2.43,5.31-3.67,5.93-3.74,2.08-.21,3.22.74,3.43,2.81.1,1.04-.34,1.92-1.31,2.65Zm-3.16,34.97c.25,2.5-.48,4.72-2.18,6.67-1.7,1.96-3.79,3.05-6.29,3.3s-4.77-.42-6.81-2.01c-2.05-1.58-3.19-3.62-3.44-6.12s.48-4.72,2.18-6.67c1.7-1.95,3.79-3.05,6.29-3.3s4.77.43,6.81,2.01c2.05,1.58,3.19,3.62,3.44,6.12Zm33.16-21.55c.03,4.62-.04,9.19-.22,13.73-.18,4.54-.58,9.04-1.19,13.51,4.08-1.24,6.85-3.46,8.32-6.65,1.47-3.19,2.01-6.76,1.62-10.71-.53-5.41-3.38-8.69-8.54-9.87Z"/>
      <text class="cls-2" transform="translate(527.42 282.79)"><tspan class="cls-8"><tspan x="0" y="0">Designed &amp; printed by</tspan></tspan><tspan class="cls-9"><tspan x="0" y="20">Charlie Biddiscombe</tspan></tspan></text>
      <text class="cls-4" transform="translate(291.46 191.92)"><tspan class="cls-1" x="0" y="0">f</tspan><tspan class="cls-10" x="43.36" y="0">ail</tspan></text>
      <path class="cls-3" d="m260.05,64.85s-28.59.07,123.15.07c87.06,0,108.19-43.97,79.04-40.77-40.51,4.44-193.77,1.02-193.77,1.02l-8.42,39.68Z"/>
      <g>
        <path class="cls-5" d="m300.8,31.2c3.46,0,6.93-.01,10.39,0,1.24,0,2.4.34,3.54.83,1.78.76,3.01,2.08,3.83,3.77.44.91.82,1.89,1,2.88.74,4.08.75,8.12-1.01,11.99-.88,1.94-2.34,3.32-4.42,3.95-1.37.42-2.77.69-4.21.69-4.69,0-9.37,0-14.06,0-1.65,0-3.25-.28-4.79-.84-1.2-.43-2.16-1.22-2.75-2.31-1.58-2.89-1.61-5.84-.11-8.78.57-1.12,1.46-1.95,2.64-2.43,1.14-.47,2.33-.82,3.55-.85,4.89-.12,9.78-.22,14.66.07.38.02.76.26,1.12.42.41.18.61.51.74.92.39,1.2.35,2.41-.05,3.58-.12.33-.53.66-.88.79-.56.2-1.18.33-1.78.33-3.67.04-7.34.03-11,.07-.8,0-1.61.16-2.41.25-.44.05-1.02.98-.86,1.38.16.39.43.69.83.86.18.08.38.17.57.17,4.89.03,9.78.05,14.67.06.2,0,.4-.08.6-.1,1.1-.12,2.34-1.17,2.65-2.26.06-.2.14-.39.17-.59.35-1.82.37-3.65,0-5.46-.11-.58-.39-1.16-.7-1.67-.44-.71-1.1-1.23-1.96-1.3-1.21-.11-2.44-.15-3.66-.16-5.5-.02-11-.02-16.51-.02-.82,0-1.65-.01-2.39-.37-.34-.16-.71-.51-.82-.85-.38-1.18-.42-2.39-.06-3.61.15-.51.78-1.14,1.25-1.2.6-.08,1.21-.22,1.81-.22,3.46-.02,6.93-.01,10.39-.01v.03Z"/>
        <path class="cls-5" d="m397.67,31.19c3.05,0,6.1,0,9.14,0,1.45,0,2.8.39,4.09,1.05,1.12.57,2.02,1.4,2.66,2.45.85,1.39,1.44,2.9,1.62,4.56.28,2.64.27,5.27,0,7.91-.15,1.44-.64,2.77-1.32,4.03-1.02,1.87-2.53,3.17-4.65,3.63-.99.21-2,.46-3,.47-5.49.05-10.97.03-16.46.03-1.23,0-2.42-.25-3.61-.53-2.6-.62-4.28-2.32-5.19-4.72-.94-2.48-1.42-5.07-1.29-7.76.11-2.27.61-4.44,1.52-6.49,1.16-2.63,3.36-4,6.12-4.48.8-.14,1.62-.16,2.43-.16,2.64-.02,5.28,0,7.92,0v.02Zm-.02,17.84v.03c.81,0,1.62,0,2.43,0,1.82-.01,3.64,0,5.47-.06,2.47-.07,3.2-1.57,3.44-3.47.2-1.62.18-3.23-.03-4.85-.05-.4-.18-.79-.28-1.18-.22-.86-1.34-1.86-2.15-1.93-.4-.03-.81-.1-1.21-.1-5.06,0-10.12,0-15.19,0-.4,0-.8.08-1.2.13-.86.12-1.51.62-1.91,1.34-1.43,2.56-1.36,6.29.14,8.71.33.53.85.88,1.43,1.06.57.17,1.19.28,1.79.29,2.43.03,4.86.01,7.29.01Z"/>
        <path class="cls-5" d="m336.42,55.32c-1.62,0-3.25-.01-4.87,0-1.64.01-3.24-.26-4.81-.69-2.32-.64-3.87-2.12-4.7-4.38-.42-1.15-.74-2.32-.79-3.55-.04-1.01-.08-2.03-.08-3.04.01-3.05.03-6.09.08-9.14,0-.6.14-1.2.22-1.81.05-.42.76-1.13,1.19-1.26,1.2-.37,2.41-.3,3.6.01.34.09.76.48.84.8.28,1.18.42,2.38.63,3.58.08.46.81,1.08,1.29,1.12.81.06,1.61.17,2.42.17,3.25.02,6.5,0,9.75.02.81,0,1.62.1,2.42.16.7.05,1.56.85,1.63,1.57.07.8.14,1.61.1,2.42-.04.99-1.03,2-1.94,2.01-3.65.05-7.31.07-10.96.12-1.21.02-2.43.08-3.64.22-.35.04-.81.34-.96.65-.94,1.92.45,4.41,2.52,4.58,1.01.08,2.02.15,3.04.16,3.05.03,6.09.02,9.14.07.59.01,1.21.17,1.76.4.34.14.7.51.82.85.35.97.33,1.99.17,3-.12.71-.94,1.57-1.58,1.68-.4.07-.79.2-1.19.21-2.03.02-4.06,0-6.09,0,0,.01,0,.03,0,.04Z"/>
        <path class="cls-5" d="m378.42,42.96c-.04,3.44-.08,6.89-.13,10.33-.01.91-1,1.87-2.02,1.91-.8.04-1.61-.02-2.41-.1-.76-.07-1.54-.89-1.6-1.59-.05-.6-.14-1.21-.14-1.81,0-5.67,0-11.34,0-17.02,0-.81.02-1.64.36-2.38.15-.33.51-.69.86-.8,1.17-.38,2.38-.4,3.59-.08.45.12,1.16.8,1.21,1.22.08.6.21,1.2.22,1.8.02,2.84.01,5.67.01,8.51.02,0,.04,0,.06,0Z"/>
        <text class="cls-6" transform="translate(347.26 47.94)"><tspan x="0" y="0">_</tspan></text>
        <text class="cls-7" transform="translate(429.65 43.27) rotate(-180)"><tspan x="0" y="0">®</tspan></text>
      </g>
    </g>
  </g>
</svg>