<?xml version="1.0" encoding="UTF-8"?>
<svg id="Layer_2" data-name="Layer 2" xmlns="http://www.w3.org/2000/svg" viewBox="0 0 406.88 169.16">
  <defs>
    <style>
      .cls-1 {
        fill: #ff7900;
      }

      .cls-1, .cls-2 {
        stroke-width: 0px;
      }

      .cls-2 {
        fill: #fff;
      }
    </style>
  </defs>
  <g id="Layer_1-2" data-name="Layer 1">
    <g>
      <rect class="cls-1" x="82.79" y="7.72" width="53.82" height="13.83"/>
      <path class="cls-1" d="m106.63,169.16c-5.05,0-9.83-.65-14.28-1.95-1.32-.39-2.71-.7-4.18-1.03-4.07-.92-8.66-1.95-12.84-4.88-.11-.04-.23-.08-.36-.13H30.42c-16.78,0-30.42-13.65-30.42-30.42V38.14C0,21.37,13.65,7.72,30.42,7.72h56.12v13.83H30.42c-9.15,0-16.6,7.45-16.6,16.6v92.6c0,9.15,7.45,16.6,16.6,16.6h48.75l1.35,1.13c.64.24,1.57.64,2.55,1.37,1.97,1.47,4.82,2.11,8.13,2.85,1.62.36,3.29.74,5.03,1.25,4.5,1.32,9.6,1.71,15.16,1.16,5.56-.55,10.48-1.93,14.64-4.1,2.24-1.17,4.19-1.55,5.49-1.8.37-.07.87-.17,1.01-.23l1.93-1.62,2.53-.02h239.48c9.15,0,16.6-7.45,16.6-16.6V38.14c0-9.15-7.45-16.6-16.6-16.6h-244.85V7.72h244.85c16.78,0,30.42,13.65,30.42,30.42v92.6c0,16.78-13.65,30.42-30.42,30.42h-237.4c-1.91,1.03-3.65,1.37-4.92,1.61-.88.17-1.29.25-1.71.48-5.73,2.99-12.35,4.88-19.68,5.6-2.08.21-4.12.31-6.12.31Z"/>
      <path class="cls-1" d="m86.54,14.63h-53.7s0,0-.01,0h-2.41c-12.93,0-23.51,10.58-23.51,23.51v92.6c0,12.93,10.58,23.51,23.51,23.51h46.23c.75.63,1.51.55,2.29,1.14,4.39,3.27,9.96,3.62,15.34,5.19,5.38,1.57,11.31,2.04,17.78,1.4,6.47-.64,12.19-2.25,17.16-4.85,3.07-1.6,5.19-.72,7.76-2.88h239.47c12.93,0,23.51-10.58,23.51-23.51V38.14c0-12.93-10.58-23.51-23.51-23.51h-200.66s0,0-.01,0h-44.17"/>
    </g>
    <g>
      <g>
        <path class="cls-2" d="m32.47,148.55c-11.44,0-20.75-9.31-20.75-20.75V38.14c0-11.44,9.31-20.75,20.75-20.75h142.94c7.12,0,12.91,5.79,12.91,12.91v105.33c0,7.12-5.79,12.91-12.91,12.91H32.47Z"/>
        <path class="cls-2" d="m376.09,14.63h-200.66s0,0-.01,0H32.47s0,0-.01,0h-2.41c-12.93,0-23.51,10.58-23.51,23.51v92.6c0,12.93,10.58,23.51,23.51,23.51h346.04c12.93,0,23.51-10.58,23.51-23.51V38.14c0-12.93-10.58-23.51-23.51-23.51Zm-190.53,15.67v105.33c0,5.59-4.55,10.14-10.14,10.14H32.47c-9.92,0-17.98-8.07-17.98-17.98V38.14c0-7.71,4.88-14.31,11.72-16.85,1.24-.28,2.52-.44,3.84-.44h149.01c3.79,1.47,6.49,5.15,6.49,9.45Zm207.82,100.43c0,9.53-7.76,17.29-17.29,17.29h-191.11c3.71-2.87,6.11-7.36,6.11-12.39V30.3c0-3.54-1.19-6.82-3.2-9.45h188.2c9.53,0,17.29,7.76,17.29,17.29v92.6Z"/>
      </g>
      <path class="cls-1" d="m168.07,89.86c.03.29-.02.51-.15.67,1.82,2.29,2.88,4.94,3.18,7.96.53,5.32-.62,9.9-3.43,13.73-2.82,3.84-6.95,6.1-12.4,6.78-1.14,6.07-2.87,11.72-5.19,16.95-2.31,5.24-5.3,9.89-8.97,13.95-3.66,4.06-7.98,7.4-12.95,9.99-4.97,2.6-10.69,4.21-17.16,4.85-6.47.64-12.39.17-17.78-1.4-5.38-1.57-10.27-3.99-14.65-7.26-4.39-3.27-8.23-7.24-11.52-11.93-3.29-4.68-6.09-9.88-8.4-15.61-5.47.54-9.99-.83-13.58-4.1-3.59-3.27-5.65-7.57-6.17-12.89-.38-3.88.58-7.39,2.88-10.52l-2.59-13.03-12.14.55c-1.32-.16-2.04-.81-2.15-1.97-.04-.43.52-1.39,1.67-2.89,1.16-1.49,2.49-3.08,3.99-4.75,1.5-1.67,2.95-3.23,4.33-4.67s2.34-2.41,2.87-2.9l-16.34-4.48c-.89-.2-1.39-.81-1.49-1.81-.09-.86.22-1.47.91-1.83l14.98-9.32c-.32-.26-.92-.81-1.8-1.67-.88-.85-1.81-1.74-2.77-2.67-.96-.92-1.81-1.78-2.54-2.58-.73-.8-1.12-1.41-1.16-1.84-.1-1,.34-1.7,1.32-2.09l26.77-8.96c-.33-.4-.96-1.28-1.89-2.64-.93-1.36-1.87-2.76-2.81-4.19-.94-1.43-1.8-2.76-2.57-3.99s-1.18-1.99-1.2-2.28c-.13-1.29.46-2,1.75-2.13l.43-.04,34.66,2.38,1.8-18.98c.59-1.36,1.46-2.1,2.61-2.22.72-.07,1.32.16,1.81.69l19.48,13.92,16.33-12.4c.52-.63,1.06-.98,1.64-1.03,1.44-.14,2.23.51,2.37,1.94l4.62,17.17,27.86-4.16.22-.02c1.29-.13,2,.46,2.13,1.75.03.29-.27,1.3-.9,3.03-.63,1.73-1.31,3.61-2.06,5.65-.75,2.03-1.5,3.96-2.26,5.78-.77,1.82-1.26,3.03-1.49,3.63l21.42,9.64c.62.37.97.99,1.05,1.86.1,1.01-.34,1.7-1.32,2.09l-13.22,5.01c.5.68,1.48,2.14,2.94,4.39,1.45,2.25,2.96,4.61,4.51,7.07,1.55,2.46,2.93,4.72,4.15,6.78,1.22,2.06,1.84,3.23,1.87,3.52.14,1.44-.51,2.23-1.94,2.37-.29.03-.96-.16-2.02-.56-1.06-.4-2.19-.84-3.39-1.3-1.21-.46-2.34-.93-3.41-1.41-1.06-.47-1.82-.83-2.28-1.08l1.53,15.53Zm-112.32,31.34c-1.02-2.95-1.89-5.94-2.63-8.99-.74-3.05-1.41-6.14-2-9.27-3.48,1.51-5.04,4.13-4.67,7.86.27,2.73,1.16,5.11,2.66,7.14,1.51,2.03,3.72,3.12,6.64,3.26Zm92.1-39.8l-.47-4.74c-.35.9-.85,2.12-1.49,3.63-.65,1.52-1.55,2.33-2.7,2.44-1.01.1-1.7-.34-2.09-1.32l-7.48-18.42c-.82.52-2.29,1.42-4.41,2.72-2.12,1.3-4.59,2.81-7.39,4.54-2.81,1.73-5.75,3.51-8.84,5.34-3.09,1.83-5.93,3.53-8.53,5.09-2.6,1.56-4.83,2.87-6.69,3.93-1.86,1.05-2.86,1.59-3,1.6-1.44.14-2.23-.5-2.37-1.94-.04-.43.16-.96.61-1.58.45-.62.96-1.29,1.54-2s1.13-1.42,1.64-2.12c.51-.7.89-1.21,1.16-1.53l-20.2,11.58,20.36,9.97c.76.36,1.18.9,1.25,1.62.14,1.44-.51,2.23-1.94,2.37-.43.04-1.79-.44-4.06-1.45-2.28-1.01-4.79-2.17-7.53-3.5-2.74-1.33-5.34-2.63-7.79-3.91-2.45-1.28-4.06-2.1-4.82-2.46-.55.35-1.27.78-2.16,1.3-.89.52-1.55.81-1.98.85-1.44.14-2.22-.43-2.35-1.73-.03-.29.12-.99.44-2.11.33-1.12.75-2.36,1.27-3.72.52-1.36.97-2.67,1.35-3.94.38-1.27.69-2.14.94-2.6l-11.64,12.25c.85,7.18,2.36,14.72,4.52,22.64,2.16,7.92,5.23,15.13,9.21,21.63,3.98,6.5,9.07,11.73,15.27,15.7,6.2,3.96,13.75,5.5,22.67,4.62,8.91-.88,16.02-3.83,21.34-8.86,5.31-5.02,9.32-11.08,12.03-18.17,2.71-7.09,4.32-14.69,4.83-22.8.51-8.11.4-15.75-.31-22.94l-.19-1.94Zm-58.41,30.37c.17,1.73-.33,3.26-1.5,4.61-1.17,1.35-2.62,2.11-4.35,2.28s-3.3-.29-4.71-1.39c-1.41-1.09-2.21-2.5-2.38-4.23s.33-3.26,1.5-4.61c1.17-1.35,2.62-2.11,4.35-2.28s3.3.29,4.71,1.39c1.41,1.1,2.21,2.5,2.38,4.23Zm37.61,28.05c.13,1.31-.53,2.04-1.96,2.18-.86.09-1.64-.43-2.33-1.55-.69-1.12-1.64-2.28-2.85-3.5-1.21-1.21-2.77-2.32-4.68-3.31-1.92-1-4.52-1.33-7.83-1s-5.81,1.13-7.49,2.41c-1.69,1.28-2.93,2.66-3.73,4.14-.8,1.49-1.39,2.81-1.79,3.95-.4,1.15-1.02,1.77-1.89,1.85-1.44.14-2.23-.51-2.37-1.97-.2-2.04.23-3.92,1.29-5.65,1.06-1.72,2.47-3.23,4.24-4.51,1.76-1.28,3.65-2.31,5.68-3.1,2.02-.79,3.9-1.27,5.63-1.44,3.74-.37,7.66.35,11.75,2.15,4.1,1.8,6.85,4.7,8.26,8.68l.06.66Zm9.65-56.67c-.53.49-2.01,1.69-4.44,3.6-2.42,1.91-5.06,3.91-7.9,6.01-2.84,2.1-5.41,3.98-7.72,5.66-2.3,1.68-3.67,2.54-4.1,2.58-1.44.14-2.23-.5-2.37-1.94-.07-.72.23-1.33.91-1.83.53-.49,2.01-1.69,4.44-3.6,2.42-1.91,5.06-3.91,7.9-6.01,2.84-2.09,5.41-3.98,7.72-5.66,2.3-1.68,3.67-2.54,4.1-2.58,1.44-.14,2.23.51,2.37,1.94.07.72-.23,1.33-.91,1.83Zm-2.19,24.17c.17,1.73-.33,3.26-1.5,4.61-1.17,1.35-2.62,2.11-4.35,2.28s-3.3-.29-4.71-1.39c-1.41-1.09-2.21-2.5-2.38-4.23s.33-3.26,1.5-4.61c1.17-1.35,2.62-2.11,4.35-2.28s3.3.29,4.71,1.39c1.41,1.1,2.21,2.5,2.38,4.23Zm22.92-14.89c.02,3.19-.03,6.35-.15,9.49-.13,3.14-.4,6.25-.82,9.34,2.82-.86,4.73-2.39,5.75-4.6,1.01-2.2,1.39-4.67,1.12-7.41-.37-3.74-2.34-6.01-5.9-6.82Z"/>
      <g>
        <path class="cls-2" d="m233.96,82.28h-8.44v-7.46h8.44v-7.2c0-4.97,1.36-8.82,4.08-11.54,2.72-2.72,6.55-4.08,11.49-4.08,3.25,0,5.81.53,7.69,1.58,1.88,1.05,3.16,2.19,3.84,3.42v5.71h-6.38c-.19-.53-.5-.99-.94-1.4-.38-.41-.89-.75-1.55-1.01s-1.52-.39-2.58-.39c-4.19,0-6.28,2.52-6.28,7.55v7.38h15.1v7.46h-15.1v36.43h-9.38v-36.43Z"/>
        <path class="cls-2" d="m275.32,119.58c-2.63,0-4.92-.35-6.89-1.05-1.97-.7-3.63-1.67-4.97-2.9-1.35-1.23-2.34-2.68-3-4.35s-.98-3.44-.98-5.31.36-3.6,1.08-5.18c.72-1.58,1.83-2.96,3.33-4.13,1.5-1.17,3.45-2.09,5.86-2.77,2.41-.67,5.3-1.01,8.67-1.01,1.5,0,2.89.06,4.17.18,1.28.12,2.42.26,3.42.44,1.12.17,2.16.38,3.09.61v-2.72c0-3.33-.78-5.84-2.34-7.5-1.56-1.67-4.16-2.5-7.78-2.5-1.94,0-3.58.28-4.92.83-1.34.56-2.45,1.16-3.33,1.8-.94.82-1.72,1.73-2.34,2.72h-6.1v-5.71c.94-1.35,2.19-2.55,3.75-3.6,1.44-.94,3.2-1.76,5.3-2.46,2.09-.7,4.74-1.05,7.92-1.05,6.31,0,11.1,1.48,14.35,4.43,3.25,2.96,4.88,7.36,4.88,13.21v27.13h-7.5l-1.12-6.32c-.56.76-1.28,1.57-2.16,2.41-.88.85-1.91,1.62-3.09,2.33-1.19.7-2.55,1.29-4.08,1.76-1.53.47-3.27.7-5.2.7Zm1.5-7.11c1.94,0,3.66-.29,5.16-.88,1.5-.58,2.78-1.35,3.84-2.28,1.06-.93,1.88-1.94,2.44-3.03.56-1.08.84-2.15.84-3.2v-2.28c-.88-.23-1.88-.44-3-.61-1-.18-2.14-.32-3.42-.44-1.28-.12-2.71-.18-4.27-.18-1.88,0-3.44.18-4.69.53-1.25.35-2.25.83-3,1.45-.75.61-1.28,1.3-1.59,2.06-.31.76-.47,1.55-.47,2.37,0,4.33,2.72,6.5,8.16,6.5Z"/>
        <path class="cls-2" d="m306.54,55.5h10.31v9.66h-10.31v-9.66Zm.47,19.31h9.38v43.89h-9.38v-43.89Z"/>
        <path class="cls-2" d="m327.27,52.87h9.38v65.84h-9.38V52.87Z"/>
      </g>
    </g>
  </g>
</svg>