<?xml version="1.0" encoding="UTF-8"?>
<svg id="Layer_2" data-name="Layer 2" xmlns="http://www.w3.org/2000/svg" viewBox="0 0 597.02 255.03">
  <defs>
    <style>
      .cls-1 {
        font-family: Navigo, Navigo;
        font-size: 128.19px;
        letter-spacing: -.03em;
      }

      .cls-1, .cls-2 {
        fill: #fff;
      }

      .cls-3 {
        font-family: DINRound-Bold, DINRound-Bold;
        font-size: 38.23px;
      }

      .cls-3, .cls-4, .cls-5 {
        fill: #83bf00;
      }

      .cls-3, .cls-5 {
        font-weight: 700;
      }

      .cls-2, .cls-4 {
        stroke-width: 0px;
      }

      .cls-5 {
        font-family: HelveticaRoundedLT-Bold, 'HelveticaRounded LT Bold';
        font-size: 16.26px;
      }
    </style>
  </defs>
  <g id="Layer_1-2" data-name="Layer 1">
    <g>
      <path class="cls-4" d="m154.22,253.69c-5.96,0-11.95-.55-17.8-1.63-6.15-1.14-12.15-2.81-17.84-4.97-.56-.21-1.13-.44-1.7-.67h-25.53c-7.83,0-4.96-6.34-4.96-14.17s-2.87-14.17,4.96-14.17h28.5c2.07,0,4.12.46,6,1.33.95.44,1.86.83,2.77,1.17,4.12,1.56,8.49,2.78,12.98,3.61,4.42.82,8.94,1.2,13.45,1.16,4.75-.05,9.2-.4,13.23-1.05,3.79-.61,7.89-1.62,12.18-3.01,1.87-.6,3.75-1.3,5.75-2.13,1.72-.71,3.56-1.08,5.42-1.08h357.2c10.94,0,19.84-8.9,19.84-19.84V64.26c0-10.94-8.9-19.84-19.84-19.84h-290.32c-.06,0-.11,0-.17,0h-46.51c-2.56,0-5.06-.69-7.26-2-8.46-5.05-17.82-8.85-27.82-11.31-12.69-3.12-26.06-3.59-39.72-1.4-12.9,2.07-24.83,6.35-35.47,12.7-2.2,1.31-4.71,2.01-7.27,2.01h-42.46c-.06,0-.11,0-.17,0h-3.48c-10.94,0-19.84,8.9-19.84,19.84v133.97c0,10.94,8.9,19.84,19.84,19.84h39.51c7.83,0,5.66,6.34,5.66,14.17s2.17,14.17-5.66,14.17h-39.51c-26.57,0-48.19-21.62-48.19-48.19V64.26C0,37.69,21.62,16.07,48.19,16.07h3.34c.05,0,.11,0,.16,0h38.82c12.83-7.11,26.95-11.93,42.03-14.35,17.43-2.8,34.59-2.17,50.99,1.86,11.38,2.8,22.15,7,32.08,12.49h42.88c.05,0,.11,0,.16,0h290.18c26.57,0,48.19,21.62,48.19,48.19v133.97c0,26.57-21.62,48.19-48.19,48.19H194.35c-1.75.67-3.48,1.29-5.16,1.83-5.65,1.83-11.18,3.19-16.42,4.04-5.42.87-11.28,1.34-17.41,1.41-.38,0-.76,0-1.14,0Z"/>
      <path class="cls-4" d="m103.68,232.24h16.17c1.22.57,2.47,1.1,3.76,1.59,4.94,1.87,10.07,3.3,15.4,4.29,5.33.99,10.73,1.46,16.21,1.39,5.47-.06,10.58-.47,15.31-1.23,4.52-.73,9.29-1.9,14.31-3.53,2.29-.74,4.56-1.59,6.8-2.52h357.2c18.71,0,34.02-15.31,34.02-34.02V64.26c0-18.71-15.31-34.02-34.02-34.02h-290.32s-.01,0-.02,0h-46.66c-9.66-5.76-20.22-10.08-31.68-12.9-14.61-3.59-29.73-4.14-45.36-1.63-14.77,2.37-28.26,7.22-40.49,14.53h-42.61s-.01,0-.02,0h-3.48c-18.71,0-34.02,15.31-34.02,34.02v133.97c0,18.71,15.31,34.02,34.02,34.02h12.36"/>
      <g>
        <path class="cls-2" d="m51.69,223.99c-16.55,0-30.02-13.46-30.02-30.02V64.26c0-16.55,13.47-30.02,30.02-30.02h206.81c10.3,0,18.68,8.38,18.68,18.68v152.4c0,10.3-8.38,18.68-18.68,18.68H51.69Z"/>
        <path class="cls-2" d="m548.83,30.24h-290.32s-.01,0-.02,0H51.69s-.01,0-.02,0h-3.48c-18.71,0-34.02,15.31-34.02,34.02v133.97c0,18.71,15.31,34.02,34.02,34.02h500.64c18.71,0,34.02-15.31,34.02-34.02V64.26c0-18.71-15.31-34.02-34.02-34.02Zm-275.66,22.68v152.4c0,8.09-6.58,14.68-14.68,14.68H51.69c-14.35,0-26.02-11.67-26.02-26.02V64.26c0-11.16,7.06-20.7,16.95-24.38,1.79-.41,3.65-.63,5.56-.63h215.59c5.49,2.13,9.39,7.45,9.39,13.68Zm300.67,145.31c0,13.79-11.22,25.02-25.02,25.02h-276.5c5.37-4.16,8.84-10.65,8.84-17.93V52.92c0-5.13-1.73-9.87-4.62-13.68h272.28c13.79,0,25.02,11.22,25.02,25.02v133.97Z"/>
      </g>
      <path class="cls-4" d="m91.09,241.3c-.62.1-25.16,9.11-26.8,9.37-1.65.27-12.45,3.89-10.82,3.14,2.88-1.32-.73,1.09-3.69,1.22-1.48.06-6.06-.27-6.23-1.28-.22-1.4,2.66-5.35,4.44-6.77,1.78-1.41,8.42-9.52,10.46-11.9,2.04-2.37,3.78-5.37,5.21-8.98,1.42-3.61,1.69-8.21.79-13.8-.87-5.39-2.47-10.77-4.8-16.13-2.34-5.36-4.65-10.52-6.92-15.48-2.67-6.13-5.15-12.39-7.45-18.78s-3.98-12.98-5.07-19.77c-2.41-14.98-1.73-29.48,2.04-43.5,3.76-14.02,9.94-26.79,18.53-38.31,8.59-11.52,19.22-21.22,31.88-29.09,12.66-7.87,26.71-13.04,42.13-15.52,15.63-2.51,30.75-1.96,45.36,1.63,14.61,3.6,27.75,9.58,39.43,17.94,11.68,8.37,21.48,18.78,29.38,31.24,7.9,12.46,13.08,26.28,15.52,41.45,1.15,7.19,1.71,14.58,1.66,22.17-.05,7.59-.85,15.09-2.4,22.51-1.55,7.42-3.84,14.55-6.85,21.38-3.02,6.84-7.02,13.11-12.01,18.83-3.05,3.36-6.25,6.38-9.62,9.07-3.37,2.69-6.98,5.17-10.83,7.42-.38.27-.88.45-1.49.55-2.78,3.73-6.19,7.14-10.22,10.24-4.04,3.11-8.44,5.91-13.21,8.42-4.77,2.51-9.66,4.58-14.67,6.2-5.02,1.63-9.79,2.8-14.31,3.53-4.73.76-9.84,1.17-15.31,1.23-5.48.06-10.88-.4-16.21-1.39-5.33-.99-15.07,6.95-20.01,5.08-4.94-1.87-9.35-4.34-13.22-7.4-2.53,2.66-5.56,5.15-9.09,7.45-3.53,2.31-2.72-5.06-6.78-3.39m-.87-57.63c-1.35-4.49-2.68-9.1-3.96-13.81-1.29-4.71-2.52-9.43-3.7-14.16-2.69,1.66-4.76,3.89-6.21,6.68-1.45,2.8-1.92,5.79-1.41,8.98.58,3.59,2.32,6.54,5.22,8.84,2.9,2.3,6.25,3.45,10.05,3.46Zm4.3-32.34c.78,3.56,1.88,8.1,3.29,13.61,1.41,5.51,2.89,11.11,4.44,16.8,1.55,5.7,3.2,11.06,4.96,16.11,1.76,5.05,3.51,9.07,5.26,12.06,2.69,4.9,6.17,8.89,10.47,11.99,4.3,3.1,8.98,5.37,14.07,6.81,5.08,1.44,10.33,2.24,15.73,2.39,5.41.16,10.78-.19,16.13-1.05,5.35-.86,10.72-2.23,16.11-4.12,5.39-1.89,10.38-4.33,14.97-7.32,4.58-2.99,8.54-6.6,11.87-10.82,3.33-4.22,5.59-9.19,6.78-14.92.55-3.16.91-7.16,1.08-12,.17-4.84.16-9.86-.04-15.05-.2-5.19-.48-10.22-.84-15.08-.36-4.86-.71-9-1.05-12.43-3.98-5.09-7.77-10.27-11.36-15.54-3.59-5.26-7.19-10.57-10.79-15.94l-101.09,44.5Zm35.12,13.72l-14.85-3.76c-1.1-.23-1.72-.85-1.88-1.85-.29-1.8.39-2.83,2.04-3.09l16.08,3.56c1.09.24,1.74.95,1.93,2.15.26,1.6-.44,2.53-2.08,2.79l-1.23.2Zm5.36,11.74c.39,2.4-.16,4.63-1.61,6.71-1.46,2.08-3.53,3.33-6.2,3.76-2.47.4-4.77-.15-6.91-1.65-2.14-1.5-3.4-3.45-3.79-5.84-.42-2.59.16-4.89,1.74-6.89,1.58-1.99,3.6-3.19,6.07-3.59,2.67-.43,5.02.07,7.04,1.48,2.02,1.42,3.24,3.42,3.66,6.02Zm23.39,25.44c3.29-.53,6.59-1.31,9.91-2.36,3.31-1.04,6.52-2.43,9.62-4.16-.48-.33-1.09-.9-1.86-1.7-.76-.8-1.19-1.5-1.29-2.1-.19-1.2.33-1.9,1.56-2.1.62-.1,1.12.08,1.51.53.39.45.95.97,1.68,1.57.73.6,1.71,1.16,2.96,1.67,1.24.52,3.03.8,5.36.83,1.06.03,1.69.65,1.88,1.85.19,1.2-.44,1.91-1.87,2.14-.62.1-1.25.1-1.9,0-.65-.1-1.3-.2-1.95-.3.02,4.1-1.03,7.75-3.15,10.95-2.13,3.21-5.45,5.18-9.97,5.9-1.44.23-3.14.15-5.11-.26-1.96-.4-3.92-1.06-5.85-1.98-1.94-.92-3.6-2.03-4.97-3.35-1.37-1.31-2.17-2.67-2.4-4.07-.26-1.6.54-2.54,2.39-2.84l3.44-.25Zm21.65-3.17c-3.28,1.96-6.83,3.51-10.65,4.63-3.83,1.13-7.59,1.99-11.3,2.58,1.52,1.6,3.36,2.89,5.53,3.88,2.16.99,4.37,1.3,6.64.93,3.29-.53,5.7-1.94,7.23-4.23,1.53-2.29,2.38-4.89,2.55-7.78Zm10.55-30.89c.85.07,1.99.25,3.41.53,1.42.29,2.79.63,4.12,1.03,1.33.4,2.53.98,3.6,1.73s1.69,1.63,1.85,2.62c.32,2-.55,3.16-2.6,3.49-.82.13-1.71-.13-2.66-.8-1.46-1.2-3.21-1.89-5.24-2.08-2.04-.18-4-.28-5.9-.28s-3.59.01-5.06.04c-1.47.04-2.39-.43-2.76-1.4-.24-.16-.39-.45-.45-.85-.22-1.39.58-2.96,2.41-4.69,1.83-1.72,4-3.35,6.5-4.88,2.49-1.52,5.03-2.85,7.59-3.98,2.56-1.13,4.46-1.79,5.69-1.99,1.85-.3,2.94.56,3.26,2.55.29,1.8-.48,2.95-2.29,3.44-1.99.73-3.93,1.5-5.8,2.31-1.88.81-3.76,1.89-5.66,3.21Zm6.58-20.11c-.55.5-1.5,1.16-2.84,1.99-1.34.83-2.78,1.73-4.31,2.69-1.54.97-2.98,1.81-4.34,2.54-1.36.73-2.25,1.13-2.66,1.19-1.65.27-2.59-.4-2.85-2-.19-1.2.19-2.08,1.16-2.65.59-.3,1.54-.91,2.87-1.84,1.32-.93,2.76-1.87,4.29-2.84,1.53-.96,2.93-1.8,4.19-2.51,1.25-.71,2.09-1.1,2.5-1.17,1.85-.3,2.92.45,3.21,2.25.16,1-.24,1.78-1.21,2.34Zm32.47-16.58c.39,5.06.72,10.08.99,15.05.27,4.98.48,9.91.63,14.8,4.08-.86,7.34-2.92,9.77-6.18,2.43-3.26,3.33-6.88,2.68-10.88-.55-3.39-2.11-6.27-4.71-8.62s-5.72-3.74-9.37-4.18Z"/>
      <text class="cls-1" transform="translate(296.51 200.05)"><tspan x="0" y="0">pass</tspan></text>
      <path class="cls-2" d="m264.75,73.93s-28.59.07,123.15.07c87.06,0,108.19-43.97,79.04-40.77-40.51,4.44-193.77,1.02-193.77,1.02l-8.42,39.68Z"/>
      <g>
        <path class="cls-4" d="m305.5,40.28c3.46,0,6.93-.01,10.39,0,1.24,0,2.4.34,3.54.83,1.78.76,3.01,2.08,3.83,3.77.44.91.82,1.89,1,2.88.74,4.08.75,8.12-1.01,11.99-.88,1.94-2.34,3.32-4.42,3.95-1.37.42-2.77.69-4.21.69-4.69,0-9.37,0-14.06,0-1.65,0-3.25-.28-4.79-.84-1.2-.43-2.16-1.22-2.75-2.31-1.58-2.89-1.61-5.84-.11-8.78.57-1.12,1.46-1.95,2.64-2.43,1.14-.47,2.33-.82,3.55-.85,4.89-.12,9.78-.22,14.66.07.38.02.76.26,1.12.42.41.18.61.51.74.92.39,1.2.35,2.41-.05,3.58-.12.33-.53.66-.88.79-.56.2-1.18.33-1.78.33-3.67.04-7.34.03-11,.07-.8,0-1.61.16-2.41.25-.44.05-1.02.98-.86,1.38.16.39.43.69.83.86.18.08.38.17.57.17,4.89.03,9.78.05,14.67.06.2,0,.4-.08.6-.1,1.1-.12,2.34-1.17,2.65-2.26.06-.2.14-.39.17-.59.35-1.82.37-3.65,0-5.46-.11-.58-.39-1.16-.7-1.67-.44-.71-1.1-1.23-1.96-1.3-1.21-.11-2.44-.15-3.66-.16-5.5-.02-11-.02-16.51-.02-.82,0-1.65-.01-2.39-.37-.34-.16-.71-.51-.82-.85-.38-1.18-.42-2.39-.06-3.61.15-.51.78-1.14,1.25-1.2.6-.08,1.21-.22,1.81-.22,3.46-.02,6.93-.01,10.39-.01v.03Z"/>
        <path class="cls-4" d="m402.37,40.27c3.05,0,6.1,0,9.14,0,1.45,0,2.8.39,4.09,1.05,1.12.57,2.02,1.4,2.66,2.45.85,1.39,1.44,2.9,1.62,4.56.28,2.64.27,5.27,0,7.91-.15,1.44-.64,2.77-1.32,4.03-1.02,1.87-2.53,3.17-4.65,3.63-.99.21-2,.46-3,.47-5.49.05-10.97.03-16.46.03-1.23,0-2.42-.25-3.61-.53-2.6-.62-4.28-2.32-5.19-4.72-.94-2.48-1.42-5.07-1.29-7.76.11-2.27.61-4.44,1.52-6.49,1.16-2.63,3.36-4,6.12-4.48.8-.14,1.62-.16,2.43-.16,2.64-.02,5.28,0,7.92,0v.02Zm-.02,17.84v.03c.81,0,1.62,0,2.43,0,1.82-.01,3.64,0,5.47-.06,2.47-.07,3.2-1.57,3.44-3.47.2-1.62.18-3.23-.03-4.85-.05-.4-.18-.79-.28-1.18-.22-.86-1.34-1.86-2.15-1.93-.4-.03-.81-.1-1.21-.1-5.06,0-10.12,0-15.19,0-.4,0-.8.08-1.2.13-.86.12-1.51.62-1.91,1.34-1.43,2.56-1.36,6.29.14,8.71.33.53.85.88,1.43,1.06.57.17,1.19.28,1.79.29,2.43.03,4.86.01,7.29.01Z"/>
        <path class="cls-4" d="m341.13,64.4c-1.62,0-3.25-.01-4.87,0-1.64.01-3.24-.26-4.81-.69-2.32-.64-3.87-2.12-4.7-4.38-.42-1.15-.74-2.32-.79-3.55-.04-1.01-.08-2.03-.08-3.04.01-3.05.03-6.09.08-9.14,0-.6.14-1.2.22-1.81.05-.42.76-1.13,1.19-1.26,1.2-.37,2.41-.3,3.6.01.34.09.76.48.84.8.28,1.18.42,2.38.63,3.58.08.46.81,1.08,1.29,1.12.81.06,1.61.17,2.42.17,3.25.02,6.5,0,9.75.02.81,0,1.62.1,2.42.16.7.05,1.56.85,1.63,1.57.07.8.14,1.61.1,2.42-.04.99-1.03,2-1.94,2.01-3.65.05-7.31.07-10.96.12-1.21.02-2.43.08-3.64.22-.35.04-.81.34-.96.65-.94,1.92.45,4.41,2.52,4.58,1.01.08,2.02.15,3.04.16,3.05.03,6.09.02,9.14.07.59.01,1.21.17,1.76.4.34.14.7.51.82.85.35.97.33,1.99.17,3-.12.71-.94,1.57-1.58,1.68-.4.07-.79.2-1.19.21-2.03.02-4.06,0-6.09,0,0,.01,0,.03,0,.04Z"/>
        <path class="cls-4" d="m383.13,52.04c-.04,3.44-.08,6.89-.13,10.33-.01.91-1,1.87-2.02,1.91-.8.04-1.61-.02-2.41-.1-.76-.07-1.54-.89-1.6-1.59-.05-.6-.14-1.21-.14-1.81,0-5.67,0-11.34,0-17.02,0-.81.02-1.64.36-2.38.15-.33.51-.69.86-.8,1.17-.38,2.38-.4,3.59-.08.45.12,1.16.8,1.21,1.22.08.6.21,1.2.22,1.8.02,2.84.01,5.67.01,8.51.02,0,.04,0,.06,0Z"/>
        <text class="cls-3" transform="translate(351.97 57.02)"><tspan x="0" y="0">_</tspan></text>
        <text class="cls-5" transform="translate(434.36 52.35) rotate(-180)"><tspan x="0" y="0">®</tspan></text>
      </g>
    </g>
  </g>
</svg>