<?xml version="1.0" encoding="UTF-8"?>
<svg id="Layer_2" data-name="Layer 2" xmlns="http://www.w3.org/2000/svg" viewBox="0 0 216.64 40.94">
  <defs>
    <style>
      .cls-1, .cls-2 {
        stroke-width: 0px;
      }

      .cls-2 {
        fill: #fff;
      }
    </style>
  </defs>
  <g id="Layer_1-2" data-name="Layer 1">
    <g>
      <path class="cls-2" d="m2.14,40.87s-28.59.07,123.15.07C212.34,40.94,233.47-3.03,204.33.17,163.81,4.6,10.56,1.19,10.56,1.19L2.14,40.87Z"/>
      <g>
        <path class="cls-1" d="m42.89,7.22c3.46,0,6.93-.01,10.39,0,1.24,0,2.4.34,3.54.83,1.78.76,3.01,2.08,3.83,3.77.44.91.82,1.89,1,2.88.74,4.08.75,8.12-1.01,11.99-.88,1.94-2.34,3.32-4.42,3.95-1.37.42-2.77.69-4.21.69-4.69,0-9.37,0-14.06,0-1.65,0-3.25-.28-4.79-.84-1.2-.43-2.16-1.22-2.75-2.31-1.58-2.89-1.61-5.84-.11-8.78.57-1.12,1.46-1.95,2.64-2.43,1.14-.47,2.33-.82,3.55-.85,4.89-.12,9.78-.22,14.66.07.38.02.76.26,1.12.42.41.18.61.51.74.92.39,1.2.35,2.41-.05,3.58-.12.33-.53.66-.88.79-.56.2-1.18.33-1.78.33-3.67.04-7.34.03-11,.07-.8,0-1.61.16-2.41.25-.44.05-1.02.98-.86,1.38.16.39.43.69.83.86.18.08.38.17.57.17,4.89.03,9.78.05,14.67.06.2,0,.4-.08.6-.1,1.1-.12,2.34-1.17,2.65-2.26.06-.2.14-.39.17-.59.35-1.82.37-3.65,0-5.46-.11-.58-.39-1.16-.7-1.67-.44-.71-1.1-1.23-1.96-1.3-1.21-.11-2.44-.15-3.66-.16-5.5-.02-11-.02-16.51-.02-.82,0-1.65-.01-2.39-.37-.34-.16-.71-.51-.82-.85-.38-1.18-.42-2.39-.06-3.61.15-.51.78-1.14,1.25-1.2.6-.08,1.21-.22,1.81-.22,3.46-.02,6.93-.01,10.39-.01v.03Z"/>
        <path class="cls-1" d="m139.76,7.21c3.05,0,6.1,0,9.14,0,1.45,0,2.8.39,4.09,1.05,1.12.57,2.02,1.4,2.66,2.45.85,1.39,1.44,2.9,1.62,4.56.28,2.64.27,5.27,0,7.91-.15,1.44-.64,2.77-1.32,4.03-1.02,1.87-2.53,3.17-4.65,3.63-.99.21-2,.46-3,.47-5.49.05-10.97.03-16.46.03-1.23,0-2.42-.25-3.61-.53-2.6-.62-4.28-2.32-5.19-4.72-.94-2.48-1.42-5.07-1.29-7.76.11-2.27.61-4.44,1.52-6.49,1.16-2.63,3.36-4,6.12-4.48.8-.14,1.62-.16,2.43-.16,2.64-.02,5.28,0,7.92,0v.02Zm-.02,17.84v.03c.81,0,1.62,0,2.43,0,1.82-.01,3.64,0,5.47-.06,2.47-.07,3.2-1.57,3.44-3.47.2-1.62.18-3.23-.03-4.85-.05-.4-.18-.79-.28-1.18-.22-.86-1.34-1.86-2.15-1.93-.4-.03-.81-.1-1.21-.1-5.06,0-10.12,0-15.19,0-.4,0-.8.08-1.2.13-.86.12-1.51.62-1.91,1.34-1.43,2.56-1.36,6.29.14,8.71.33.53.85.88,1.43,1.06.57.17,1.19.28,1.79.29,2.43.03,4.86.01,7.29.01Z"/>
        <path class="cls-1" d="m78.51,31.34c-1.62,0-3.25-.01-4.87,0-1.64.01-3.24-.26-4.81-.69-2.32-.64-3.87-2.12-4.7-4.38-.42-1.15-.74-2.32-.79-3.55-.04-1.01-.08-2.03-.08-3.04.01-3.05.03-6.09.08-9.14,0-.6.14-1.2.22-1.81.05-.42.76-1.13,1.19-1.26,1.2-.37,2.41-.3,3.6.01.34.09.76.48.84.8.28,1.18.42,2.38.63,3.58.08.46.81,1.08,1.29,1.12.81.06,1.61.17,2.42.17,3.25.02,6.5,0,9.75.02.81,0,1.62.1,2.42.16.7.05,1.56.85,1.63,1.57.07.8.14,1.61.1,2.42-.04.99-1.03,2-1.94,2.01-3.65.05-7.31.07-10.96.12-1.21.02-2.43.08-3.64.22-.35.04-.81.34-.96.65-.94,1.92.45,4.41,2.52,4.58,1.01.08,2.02.15,3.04.16,3.05.03,6.09.02,9.14.07.59.01,1.21.17,1.76.4.34.14.7.51.82.85.35.97.33,1.99.17,3-.12.71-.94,1.57-1.58,1.68-.4.07-.79.2-1.19.21-2.03.02-4.06,0-6.09,0,0,.01,0,.03,0,.04Z"/>
        <path class="cls-1" d="m120.52,18.98c-.04,3.44-.08,6.89-.13,10.33-.01.91-1,1.87-2.02,1.91-.8.04-1.61-.02-2.41-.1-.76-.07-1.54-.89-1.6-1.59-.05-.6-.14-1.21-.14-1.81,0-5.67,0-11.34,0-17.02,0-.81.02-1.64.36-2.38.15-.33.51-.69.86-.8,1.17-.38,2.38-.4,3.59-.08.45.12,1.16.8,1.21,1.22.08.6.21,1.2.22,1.8.02,2.84.01,5.67.01,8.51.02,0,.04,0,.06,0Z"/>
        <path class="cls-1" d="m110.32,27.5c.22.04.44.11.64.21.61.32.92.87.92,1.64s-.31,1.33-.92,1.64c-.2.1-.42.17-.64.21-.22.04-.57.06-1.04.06h-16.82c-.47,0-.82-.02-1.04-.06-.22-.04-.44-.11-.64-.21-.61-.32-.92-.87-.92-1.64s.31-1.33.92-1.64c.2-.1.42-.17.64-.21.22-.04.57-.06,1.04-.06h16.82c.47,0,.82.02,1.04.06Z"/>
        <path class="cls-1" d="m171.37,25.14c0,.98-.17,1.84-.51,2.6-.34.76-.8,1.4-1.37,1.92-.57.52-1.22.92-1.96,1.2-.74.28-1.5.41-2.29.41s-1.56-.14-2.29-.41c-.74-.28-1.39-.67-1.96-1.2-.57-.52-1.02-1.16-1.37-1.92-.34-.76-.51-1.63-.51-2.6s.17-1.84.51-2.6c.34-.76.8-1.4,1.37-1.92.57-.52,1.22-.92,1.96-1.19.74-.28,1.5-.42,2.29-.42s1.56.14,2.29.42c.74.28,1.39.67,1.96,1.19.57.52,1.02,1.16,1.37,1.92.34.76.51,1.62.51,2.6Zm-1.85,0c0-.69-.11-1.33-.33-1.89-.22-.57-.53-1.06-.91-1.47s-.84-.73-1.36-.96c-.52-.23-1.08-.34-1.67-.34s-1.14.11-1.66.34-.98.55-1.37.96c-.39.41-.7.9-.92,1.47-.22.57-.33,1.2-.33,1.89s.11,1.33.33,1.89c.22.57.53,1.06.92,1.47.39.41.85.73,1.37.96.52.23,1.07.34,1.66.34s1.15-.11,1.67-.34c.52-.23.97-.55,1.36-.96s.69-.9.91-1.47c.22-.57.33-1.2.33-1.89Zm-1.85,2.55c0,.25-.08.43-.23.55-.15.12-.32.18-.5.18h-2.06c-.37,0-.7-.03-.98-.09s-.53-.17-.74-.32c-.21-.15-.36-.36-.47-.61-.11-.25-.16-.57-.16-.95,0-.3.04-.57.13-.79.09-.22.2-.41.34-.57.14-.16.3-.28.48-.36.18-.08.37-.13.56-.14l-1.07-1.43c-.09-.12-.14-.23-.17-.33-.03-.1-.04-.21-.04-.32,0-.14.07-.27.2-.39s.3-.18.5-.18c.17,0,.33.04.46.12s.26.21.39.4l1.5,2.13h.42v-1.9c0-.25.07-.44.21-.56.14-.12.31-.19.52-.19s.37.06.51.19c.15.12.22.31.22.56v4.99Zm-1.46-1.92h-1.25c-.24,0-.44.05-.62.14-.17.09-.26.29-.26.61s.09.5.26.59c.17.09.38.14.62.14h1.25v-1.48Z"/>
      </g>
    </g>
  </g>
</svg>